PathFileType	4	(X/Y/Z)	/Users/itak/Documents/Research/Walk-IL/dataset/trc/00172_00008.trc
DataRate	CameraRate	NumFrames	NumMarkers	Units	OrigDataRate	OrigDataStartFrame	OrigNumFrames
100.000000	100.000000	4	53	mm	100.000000	289	579
Frame#	Time	RPSI			LPSI			L3			STRN			T10			C7			CLAV			RBAK			LBAK			LSHO			LUPA			LAEL			LAOL			LWTS			LWPS			LFRA			LIFD			LHPS			LHTS			RSHO			RUPA			RAEL			RAOL			RWTS			RWPS			RFRA			RIFD			RHTS			RHPS			RBHD			LFHD			RFHD			LBHD			LHIP			RHIP			RASI			LASI			LKNE			LTHI			LANK			LTIP			LTOE			LMT1			LMT5			LHEE			RKNE			RANK			RTIP			RTOE			RMT1			RMT5			RHEE			RTHI			
		X1	Y1	Z1	X2	Y2	Z2	X3	Y3	Z3	X4	Y4	Z4	X5	Y5	Z5	X6	Y6	Z6	X7	Y7	Z7	X8	Y8	Z8	X9	Y9	Z9	X10	Y10	Z10	X11	Y11	Z11	X12	Y12	Z12	X13	Y13	Z13	X14	Y14	Z14	X15	Y15	Z15	X16	Y16	Z16	X17	Y17	Z17	X18	Y18	Z18	X19	Y19	Z19	X20	Y20	Z20	X21	Y21	Z21	X22	Y22	Z22	X23	Y23	Z23	X24	Y24	Z24	X25	Y25	Z25	X26	Y26	Z26	X27	Y27	Z27	X28	Y28	Z28	X29	Y29	Z29	X30	Y30	Z30	X31	Y31	Z31	X32	Y32	Z32	X33	Y33	Z33	X34	Y34	Z34	X35	Y35	Z35	X36	Y36	Z36	X37	Y37	Z37	X38	Y38	Z38	X39	Y39	Z39	X40	Y40	Z40	X41	Y41	Z41	X42	Y42	Z42	X43	Y43	Z43	X44	Y44	Z44	X45	Y45	Z45	X46	Y46	Z46	X47	Y47	Z47	X48	Y48	Z48	X49	Y49	Z49	X50	Y50	Z50	X51	Y51	Z51	X52	Y52	Z52	X53	Y53	Z53	

290	2.89	-141.6661224365234	1067.442260742188	334.4319458007812	-157.69189453125	1067.513671875	213.1992950439453	-144.7930297851562	1108.4638671875	275.7374877929688	129.5446014404297	1298.832153320312	230.7222747802734	-163.8367767333984	1268.035522460938	267.3669128417969	-84.9970703125	1532.03466796875	232.0703125	106.6616287231445	1413.502563476562	217.5245666503906	-147.9993438720703	1367.1357421875	357.8738098144531	-106.3735427856445	1501.439453125	134.3138885498047	-41.73995590209961	1477.879150390625	47.94122314453125	-91.08016204833984	1342.986206054688	-9.881813049316406	-90.37639617919922	1125.427001953125	-9.025023460388184	-118.0467987060547	1115.201049804688	74.89577484130859	31.16818046569824	898.07373046875	11.04615020751953	-56.71022033691406	871.0206909179688	-6.662871360778809	-78.66851043701172	1012.935974121094	-16.92206764221191	66.89806365966797	716.6113891601562	31.54111862182617	-29.45421981811523	802.681884765625	-4.429182052612305	41.9693717956543	820.806640625	-7.87807559967041	-0.7332169413566589	1514.522705078125	405.1021423339844	-16.38729476928711	1453.792602539062	480.4755554199219	-44.52494812011719	1169.543579101562	555.9854736328125	-61.71939086914062	1157.559814453125	460.6214904785156	91.23240661621094	941.5599365234375	523.5537109375	23.2119083404541	923.7869873046875	577.652587890625	-18.23382568359375	1096.07177734375	572.45703125	105.1709594726562	754.6316528320312	496.8609008789062	118.9488372802734	847.6084594726562	529.2496948242188	49.70335006713867	840.547119140625	570.7001953125	-13.22909259796143	1685.675537109375	296.5361328125	118.233024597168	1732.292724609375	128.9005126953125	146.4944305419922	1738.992919921875	255.3176422119141	-52.77503204345703	1686.85400390625	162.1290893554688	-62.5928955078125	1003.976013183594	85.86992645263672	16.39923477172852	1016.179870605469	445.8585815429688	93.67267608642578	1043.388061523438	383.8623352050781	58.90900039672852	1039.181030273438	127.108528137207	149.9429321289062	533.4368286132812	77.97956848144531	88.74106597900391	671.28515625	63.57681655883789	-31.95357513427734	86.04334259033203	133.1071929931641	59.72040557861328	312.6923217773438	91.47651672363281	181.6118316650391	64.41758728027344	103.479133605957	147.1976165771484	74.03592681884766	160.7323760986328	60.72851943969727	56.07687759399414	72.29445648193359	-61.53439712524414	103.6326370239258	212.9202880859375	58.62269973754883	515.1113891601562	399.1349182128906	-52.12906265258789	38.85030364990234	387.9281005859375	66.6126708984375	391.7691650390625	377.2071838378906	170.1713256835938	43.07154846191406	353.3030700683594	116.0962600708008	39.71637725830078	308.3273010253906	60.2352409362793	36.98529434204102	423.2354125976562	-103.9861602783203	36.86113739013672	319.2371215820312	79.82505035400391	785.517822265625	439.123291015625	
291	2.9	-147.69677734375	1067.363037109375	333.9155578613281	-163.2317047119141	1067.502197265625	212.595947265625	-150.7060241699219	1108.426513671875	275.1614990234375	123.1484680175781	1299.45947265625	231.3532562255859	-170.1705932617188	1267.7216796875	267.03564453125	-92.08123779296875	1532.077392578125	232.4428405761719	99.93035888671875	1414.052856445312	218.2500305175781	-154.9400177001953	1366.733276367188	357.7669982910156	-113.0841217041016	1501.572265625	134.6222381591797	-48.28260803222656	1478.324096679688	48.35176849365234	-97.53981018066406	1343.481201171875	-9.798874855041504	-97.23500061035156	1125.897827148438	-9.347269058227539	-124.7063674926758	1115.641723632812	74.61917877197266	23.65764999389648	898.2699584960938	9.68739128112793	-64.35983276367188	871.591552734375	-7.741256237030029	-85.85955047607422	1013.48486328125	-17.61609077453613	58.83158111572266	716.6420288085938	29.58283424377441	-37.3768424987793	803.1312866210938	-5.775254249572754	34.11928558349609	821.0161743164062	-9.488225936889648	-8.283479690551758	1514.513793945312	405.6634216308594	-24.06283760070801	1453.744262695312	480.9364318847656	-52.32098770141602	1169.838134765625	556.6375732421875	-69.39261627197266	1157.562622070312	461.2083740234375	81.58061218261719	940.6029663085938	526.1290283203125	13.3858757019043	923.9813232421875	580.374267578125	-26.55605506896973	1096.4970703125	573.60595703125	93.42739868164062	753.25390625	500.93310546875	108.1975326538086	846.3402099609375	532.5550537109375	39.01993560791016	840.4022216796875	574.1058959960938	-20.68609428405762	1685.673950195312	297.702880859375	111.1187744140625	1733.2666015625	130.6826934814453	139.0948638916016	1739.28955078125	257.2013549804688	-59.92745590209961	1687.508911132812	163.2756652832031	-68.28401184082031	1004.07958984375	85.377197265625	10.07310485839844	1016.454406738281	445.8315124511719	87.55046844482422	1043.762939453125	384.0599060058594	53.68766021728516	1039.2119140625	127.1816177368164	142.1851959228516	532.2141723632812	76.90023803710938	82.30123901367188	670.7955932617188	63.03046798706055	-59.05614852905273	93.37091827392578	135.1167297363281	42.91986083984375	315.4154052734375	91.95647430419922	153.5225219726562	62.54535293579102	106.6521759033203	119.2722549438477	74.10037994384766	163.6893310546875	32.42223739624023	58.87834167480469	75.04873657226562	-88.35208892822266	113.1054992675781	214.8711853027344	55.53264617919922	515.6273803710938	399.2022399902344	-52.15214538574219	38.78221130371094	387.9843444824219	64.29904174804688	392.3491821289062	377.2534790039062	170.10546875	43.30505752563477	353.2616882324219	116.1639862060547	40.03920364379883	308.2835083007812	60.18663787841797	37.03210067749023	423.2646789550781	-104.2141723632812	36.86286544799805	319.2671508789062	74.75297546386719	786.1333618164062	439.3230285644531	
292	2.91	-153.6296691894531	1067.202392578125	333.4105529785156	-168.7322387695312	1067.395141601562	212.0084533691406	-156.5802154541016	1108.299072265625	274.5650024414062	116.7661437988281	1300.061645507812	231.939208984375	-176.4513397216797	1267.347412109375	266.5928344726562	-99.17829132080078	1532.052734375	232.6692352294922	93.20972442626953	1414.571166992188	218.9166564941406	-161.8900604248047	1366.27197265625	357.5163879394531	-119.7444000244141	1501.642333984375	134.7862243652344	-54.73409271240234	1478.736328125	48.64440155029297	-103.8759536743164	1343.95361328125	-9.860598564147949	-103.9999694824219	1126.3505859375	-9.831941604614258	-131.2853546142578	1116.068359375	74.17422485351562	16.17229652404785	898.42431640625	8.158330917358398	-71.99416351318359	872.1421508789062	-8.990877151489258	-92.97808074951172	1014.057250976562	-18.48290061950684	50.74306488037109	716.6214599609375	27.44754791259766	-45.2982292175293	803.56298828125	-7.302069664001465	26.26756286621094	821.1846313476562	-11.27745246887207	-15.91608047485352	1514.470703125	406.1094055175781	-31.83321762084961	1453.65478515625	481.2792663574219	-60.12114715576172	1170.073486328125	557.1124877929688	-76.94728851318359	1157.483276367188	461.6268920898438	72.06291198730469	939.7001953125	528.67724609375	3.686716556549072	924.1945190429688	582.9727783203125	-34.82817840576172	1096.888916015625	574.5986938476562	81.95412445068359	751.9459228515625	505.0369567871094	97.64923858642578	845.1590576171875	535.8731079101562	28.51569747924805	840.3153686523438	577.4451293945312	-28.19687843322754	1685.607788085938	298.7473449707031	103.9777984619141	1734.226196289062	132.4146575927734	131.6445007324219	1739.54833984375	259.0414428710938	-67.0909423828125	1688.1005859375	164.3315887451172	-74.0830078125	1004.107971191406	84.85773468017578	3.884675025939941	1016.669128417969	445.7640380859375	81.50325012207031	1044.086303710938	384.1604614257812	48.48437881469727	1039.187866210938	127.1525573730469	133.8035278320312	530.6883544921875	75.87889099121094	75.42256164550781	670.0218505859375	62.47002410888672	-86.12025451660156	101.0872344970703	136.8712310791016	25.81262969970703	318.1914367675781	92.32512664794922	125.1259307861328	61.1879997253418	109.6249847412109	91.12812042236328	74.66238403320312	166.4411468505859	3.961369752883911	62.15639877319336	77.57852935791016	-115.0367965698242	122.8790054321289	216.5084228515625	52.59480667114258	516.100830078125	399.2011413574219	-52.16850280761719	38.72176742553711	388.0364685058594	62.14005279541016	392.8983764648438	377.2501831054688	170.0812072753906	43.56241989135742	353.1796264648438	116.2391967773438	40.33802795410156	308.2081909179688	60.14333724975586	37.07643890380859	423.28125	-104.4009704589844	36.85998153686523	319.3077697753906	69.87067413330078	786.704345703125	439.4152221679688	
293	2.92	-159.4725646972656	1066.971801757812	332.9295043945312	-174.2179107666016	1067.204711914062	211.4449615478516	-162.4213562011719	1108.087524414062	273.9625854492188	110.3882904052734	1300.636108398438	232.4747467041016	-182.6918182373047	1266.926879882812	266.0549621582031	-106.2864456176758	1531.96826171875	232.7500915527344	86.49571990966797	1415.054565429688	219.516845703125	-168.8484344482422	1365.764892578125	357.1292724609375	-126.3620071411133	1501.652587890625	134.8068237304688	-61.09874725341797	1479.118896484375	48.81682205200195	-110.0778350830078	1344.407470703125	-10.07383251190186	-110.649658203125	1126.803833007812	-10.48201179504395	-137.7721252441406	1116.480224609375	73.55307006835938	8.717955589294434	898.534423828125	6.470694065093994	-79.6053466796875	872.6756591796875	-10.40672492980957	-100.0061950683594	1014.652221679688	-19.51948356628418	42.61604690551758	716.5435180664062	25.17309379577637	-53.21707534790039	803.977783203125	-8.996355056762695	18.41258430480957	821.3023681640625	-13.22575950622559	-23.62115859985352	1514.396606445312	406.4363708496094	-39.69091033935547	1453.528442382812	481.5007019042969	-67.94271087646484	1170.252807617188	557.4057006835938	-84.38037872314453	1157.328979492188	461.8713989257812	62.68235778808594	938.8598022460938	531.205810546875	-5.911438465118408	924.4180297851562	585.4202880859375	-43.07419586181641	1097.244018554688	575.4298095703125	70.79337310791016	750.7213745117188	509.1549682617188	87.33189392089844	844.0828247070312	539.2109985351562	18.1792106628418	840.2823486328125	580.687744140625	-35.76284027099609	1685.478881835938	299.6614379882812	96.81272125244141	1735.174438476562	134.0959930419922	124.1429824829102	1739.768432617188	260.8381652832031	-74.25912475585938	1688.633178710938	165.2860412597656	-80.04092407226562	1004.07763671875	84.30412292480469	-2.168720245361328	1016.821716308594	445.654541015625	75.53052520751953	1044.355102539062	384.1613159179688	43.27297592163086	1039.126953125	127.0223236083984	124.7665328979492	528.8871459960938	74.92413330078125	68.07212829589844	668.9932250976562	61.91934204101562	-113.0198440551758	109.0784606933594	138.3599700927734	8.433789253234863	320.9812316894531	92.58193206787109	96.56611633300781	60.30695343017578	112.3475799560547	62.90822982788086	75.66138458251953	168.9540710449219	-24.5135383605957	65.84758758544922	79.85304260253906	-141.4118194580078	132.8039398193359	217.8113708496094	49.80994415283203	516.5343017578125	399.1226806640625	-52.17885971069336	38.6712646484375	388.0807189941406	60.1288948059082	393.4140014648438	377.1889038085938	170.1031951904297	43.8359260559082	353.0432434082031	116.3070678710938	40.58237075805664	308.1076354980469	60.10384750366211	37.1157341003418	423.2850341796875	-104.5380172729492	36.84154510498047	319.3612976074219	65.14443206787109	787.2259521484375	439.3946228027344	
